<svg width="144" height="80" viewBox="0 0 144 80" fill="none" xmlns="http://www.w3.org/2000/svg">
<rect width="144" height="80" fill="#F5F5F5"/>
<rect width="1920" height="6054" transform="translate(-352 -2974)" fill="white"/>
<rect width="1920" height="432" transform="translate(-352 -160)" fill="#FBFBFB"/>
<g style="mix-blend-mode:luminosity" opacity="0.5">
<g clip-path="url(#clip0_2_4)">
<path d="M67.8336 21.1083H68.0159C68.8492 20.0667 69.9429 19.4417 71.2969 19.4417C73.4582 19.4417 74.6821 20.4573 74.6821 22.8269C74.6821 24.0768 74.63 27.5401 74.6821 28.6338H71.5573V23.3216C71.5573 21.7593 71.1407 20.926 69.8908 20.926C68.4586 20.926 68.0419 22.0717 68.0419 23.7904V28.6338H64.9172V19.7021H67.9117L67.8336 21.1083ZM85.5667 21.3687C84.8637 20.6656 84.0043 20.2229 82.6763 20.2229C80.8535 20.2229 79.9161 21.7593 79.9161 24.207C79.9161 26.5245 81.0879 27.8526 83.3013 27.8526C84.1606 27.8526 85.098 27.462 85.5667 27.0193L85.9834 27.5922C85.2022 28.2692 83.6658 28.8942 82.3899 28.8942C78.1454 28.8942 76.7392 26.4464 76.7392 24.207C76.7392 21.4989 78.9787 19.4678 82.468 19.4678C84.0304 19.4678 85.124 19.8063 86.1396 20.301L85.5667 21.3687ZM92.1548 19.4417C95.5139 19.4417 97.4669 21.2124 97.4669 23.9726C97.4669 26.9932 95.2796 28.8681 92.1548 28.8681C89.5508 28.8681 86.8427 27.6442 86.8427 24.3632C86.8427 21.0822 89.4206 19.4417 92.1548 19.4417ZM92.2069 20.1187C90.7486 20.1187 89.9154 21.577 89.9154 24.4153C89.9154 26.5245 90.4362 28.2171 92.1808 28.2171C93.6651 28.2171 94.3942 26.6027 94.3942 23.6862C94.3942 21.5249 93.7693 20.1187 92.2069 20.1187ZM53.7982 20.4573C55.0481 19.7281 56.7667 19.4417 58.1208 19.4417C60.4383 19.4417 62.0788 20.275 62.0788 22.4363V28.6338H59.3707C59.3707 28.4515 59.3967 28.0088 59.3707 27.5922L59.3447 27.3578L59.1884 27.5401C58.5114 28.3213 57.7042 28.8942 56.4022 28.8942C54.2148 28.8942 53.3295 27.6703 53.3295 26.5245C53.3295 24.9621 54.5273 24.2851 56.5324 23.8685C58.9801 23.3737 59.2926 23.2175 59.2926 22.4363C59.2926 21.4728 58.4333 20.6916 57.0792 20.6916C55.5168 20.6916 54.4752 21.2124 54.1627 21.3947L53.7982 20.4573ZM59.3447 23.6862L59.2145 23.7643C58.902 23.9206 58.5635 24.0247 58.251 24.1289C57.9125 24.233 57.6 24.3372 57.2875 24.4934C56.6886 24.8059 56.2459 25.2746 56.2459 26.2641C56.2459 27.2276 56.7667 27.8005 57.6 27.8005C58.6416 27.8005 59.3447 27.0974 59.3447 25.8475V23.6862ZM45.8561 16.7075H44.6843L44.6061 21.4989H45.6998C47.0018 21.4989 48.3038 20.6656 48.3038 18.999C48.3038 17.7491 47.6528 16.7075 45.8561 16.7075ZM41.3251 15.7961H47.0278C49.6579 15.7961 51.4025 16.6555 51.4025 18.6345C51.4025 20.6135 49.2412 21.4728 47.8872 21.6811V21.8634C49.2412 21.9155 51.7671 22.7488 51.7671 24.9361C51.7671 27.5401 49.3193 28.6077 46.7154 28.6077H41.3251V15.7961V15.7961ZM45.6477 22.3842H44.6061L44.6322 27.7484H45.9342C47.2882 27.7484 48.46 26.7849 48.46 25.0923C48.46 23.2956 47.4705 22.3842 45.6477 22.3842Z" fill="#FAB327"/>
<path d="M6.50995 45.5597C7.6557 51.3926 12.6814 54.8038 18.358 54.8038C21.8995 54.8038 25.0503 53.4758 25.0503 50.5593C25.0503 48.6063 23.7743 47.3044 21.9776 46.2628C21.0662 45.742 20.0246 45.2733 18.8788 44.8306C17.7591 44.3879 16.5613 43.9452 15.3635 43.4765C10.5461 41.5756 5.88499 39.206 5.88499 33.5293C5.88499 27.0975 12.2127 24.0508 18.4362 24.0508C21.3005 24.0508 23.3056 24.6498 24.8159 25.2487C25.5711 25.5611 26.2221 25.8476 26.7949 26.0819C27.3678 26.3163 27.8626 26.4725 28.3573 26.4725C29.425 26.4725 29.9457 25.9778 30.0759 24.5977H30.8051V33.6856H30.0499C28.7479 28.6599 24.4514 25.6913 18.957 25.6913C15.9103 25.6913 13.4105 26.9933 13.4105 29.8577C13.4105 31.5763 14.6604 32.696 16.4311 33.5814C18.2018 34.4667 20.5454 35.1698 22.915 36.0552C27.6282 37.7998 32.2112 40.2215 32.2112 46.1586C32.2112 53.4498 26.7689 56.4183 19.3215 56.4183C17.2123 56.4183 14.8687 55.9496 12.9157 55.4809C11.9262 55.2465 11.0669 55.0121 10.3638 54.8299C9.6868 54.6476 9.13996 54.5434 8.87957 54.5434C7.81193 54.5434 6.90054 55.2465 6.53599 56.0537H5.78083V45.5597H6.50995ZM76.8174 56.0277V55.2986C74.3957 55.2986 73.4582 54.7517 73.4582 52.2259V44.8827C77.234 44.8827 78.7703 45.4295 78.9787 49.3355H79.7598V38.9456H78.9787C78.7703 42.8516 77.234 43.3984 73.4582 43.3984V34.1022H77.5204C81.14 34.1022 83.0409 35.6125 83.3794 39.0758H84.1345V32.67H62.5476V33.3991C64.9693 33.3991 65.9067 33.946 65.9067 36.4718V52.2259C65.9067 54.7517 64.9693 55.2986 62.5476 55.2986V56.0277H76.8174ZM127.361 56.0277V55.2986C125.225 55.2986 124.626 54.6736 124.626 53.8143C124.626 53.1894 124.809 52.6946 125.069 51.9655L126.319 48.5803H132.907L134.548 52.4863C134.73 52.955 134.938 53.5279 134.938 54.0487C134.938 54.8299 134.313 55.2725 133.506 55.2725H131.944V56.0017H144.521V55.2725C143.375 55.1684 143.089 55.0121 142.464 53.5539L133.636 32.6179H131.188L123.194 52.1478C122.179 54.5955 121.58 55.1423 120.148 55.2725V56.0017H127.361V56.0277V56.0277ZM132.386 47.2783H126.814L129.6 40.3778L132.386 47.2783ZM101.165 56.1579H101.946C102.154 55.559 102.831 55.0382 103.586 55.0382C104.315 55.0382 108.169 56.4183 111.294 56.4183C116.814 56.4183 120.929 54.1789 120.929 48.7105C120.929 39.7528 107.024 41.4715 107.024 36.6801C107.024 34.6751 108.768 33.7376 111.008 33.7376C115.07 33.7376 118.195 35.925 119.106 39.6487H119.861V32.67H119.106C119.028 33.7116 118.689 34.0501 117.96 34.0501C116.632 34.0501 114.888 32.2794 110.617 32.2794C106.008 32.2794 101.217 34.5449 101.217 39.3883C101.217 47.9814 115.382 46.4711 115.382 51.9394C115.382 53.9705 113.195 54.9601 110.565 54.9601C106.373 54.9601 102.701 52.4342 101.92 48.1376H101.139V56.1579H101.165V56.1579ZM35.1537 44.3358C35.1537 52.304 40.9606 56.4183 48.6944 56.4183C56.4542 56.4183 62.2351 52.33 62.2351 44.3358C62.2351 36.3677 56.4282 32.2534 48.6944 32.2534C40.9606 32.2534 35.1537 36.3677 35.1537 44.3358ZM42.9136 44.3358C42.9136 36.6541 45.2832 33.7116 48.7204 33.7116C52.1316 33.7116 54.5273 36.6541 54.5273 44.3358C54.5273 52.0176 52.1577 54.9601 48.7204 54.9601C45.2832 54.9601 42.9136 52.0176 42.9136 44.3358ZM99.2376 56.0277V55.2986C96.868 55.2986 95.9306 54.7517 95.9306 52.2259V36.4718C95.9306 33.946 96.868 33.3991 99.2376 33.3991V32.67H85.0199V33.3991C87.4416 33.3991 88.379 33.946 88.379 36.4718V52.2259C88.379 54.7517 87.4416 55.2986 85.0199 55.2986V56.0277H99.2376ZM0 15.8223H37.6014V18.1398H0V15.8223ZM0 19.7803H37.6014V20.5355H0V19.7803ZM0 62.6418H37.6014V64.9593H0V62.6418ZM0 60.2201H37.6014V60.9752H0V60.2201Z" fill="#17B497"/>
</g>
</g>
<defs>
<clipPath id="clip0_2_4">
<rect width="144" height="48.8767" fill="white" transform="translate(0 15.5618)"/>
</clipPath>
</defs>
</svg>
