<svg width="105" height="80" viewBox="0 0 105 80" fill="none" xmlns="http://www.w3.org/2000/svg">
<rect width="105" height="80" fill="#F5F5F5"/>
<g id="Home">
<g id="Home_2">
<rect width="1920" height="6054" transform="translate(-806 -3086)" fill="white"/>
<g id="Frame 85">
<rect width="1920" height="432" transform="translate(-806 -272)" fill="#FBFBFB"/>
<g id="container">
<g id="parterns-list">
<g id="partner-list">
<g id="bari-svg" style="mix-blend-mode:luminosity" opacity="0.5">
<g id="Partner" clip-path="url(#clip0_2_4)">
<g id="Group">
<path id="Vector" d="M51.9255 22.697C52.3069 22.697 52.673 22.8508 52.9439 23.1238C53.2147 23.3979 53.3664 23.7684 53.3664 24.1552V28.2827C53.3664 28.6705 53.2147 29.0432 52.9428 29.3173C52.672 29.5924 52.3036 29.7463 51.919 29.7463H46.3128V20.5H47.3073V22.697H51.9255ZM52.3708 28.2675V24.1768C52.3717 24.115 52.3602 24.0536 52.337 23.9962C52.3137 23.9389 52.2792 23.8869 52.2354 23.8432C52.1933 23.7988 52.1425 23.7636 52.0862 23.7398C52.0299 23.7159 51.9693 23.7039 51.9082 23.7045H47.7818C47.7199 23.7041 47.6585 23.7162 47.6014 23.74C47.5443 23.7639 47.4925 23.7989 47.4492 23.8432C47.4036 23.8858 47.3675 23.9376 47.343 23.995C47.3186 24.0525 47.3064 24.1144 47.3073 24.1768V28.2675C47.3068 28.3296 47.319 28.3912 47.3432 28.4484C47.3674 28.5056 47.4031 28.5572 47.4481 28.6001C47.4916 28.6445 47.5435 28.6797 47.6008 28.7037C47.6581 28.7277 47.7197 28.74 47.7818 28.7398H51.9093C51.9702 28.7404 52.0305 28.7282 52.0865 28.7042C52.1425 28.6801 52.1928 28.6447 52.2343 28.6001C52.2785 28.5568 52.3135 28.505 52.3371 28.4479C52.3607 28.3907 52.3726 28.3294 52.3719 28.2675H52.3708ZM61.8575 22.697C62.0493 22.6956 62.2395 22.7328 62.4166 22.8063C62.5938 22.8798 62.7544 22.9882 62.8889 23.1249C63.0249 23.2623 63.1325 23.4251 63.2053 23.6042C63.2782 23.7832 63.315 23.9749 63.3135 24.1682V29.7473H57.7073C57.5163 29.7503 57.3268 29.7133 57.1509 29.6389C56.975 29.5645 56.8166 29.4542 56.6857 29.3151C56.5486 29.1795 56.4405 29.0176 56.3678 28.839C56.2952 28.6604 56.2596 28.4689 56.2632 28.2762V25.7195H62.3223V24.1736C62.3211 24.0494 62.2718 23.9306 62.1847 23.8421C62.0983 23.7544 61.9806 23.7046 61.8575 23.7034H56.26V22.6959H61.8575V22.697ZM62.319 28.7398V26.7248H57.2545V28.2686C57.2545 28.3932 57.3043 28.5123 57.391 28.6012C57.4776 28.6889 57.5968 28.7388 57.7192 28.7398H62.319ZM71.9954 22.697C72.1863 22.6939 72.3757 22.7307 72.5516 22.8049C72.7275 22.8792 72.886 22.9893 73.017 23.1282C73.1541 23.2639 73.2622 23.4261 73.3349 23.6048C73.4075 23.7836 73.4431 23.9752 73.4395 24.1682V29.7463H72.445V24.1779C72.4459 24.1158 72.4343 24.0541 72.4108 23.9966C72.3874 23.9391 72.3526 23.8869 72.3085 23.8432C72.2665 23.799 72.2159 23.7639 72.1598 23.74C72.1037 23.7161 72.0433 23.7041 71.9824 23.7045H67.8549C67.7931 23.7043 67.732 23.7164 67.6751 23.7402C67.6181 23.7641 67.5665 23.7991 67.5234 23.8432C67.4776 23.8858 67.4413 23.9375 67.4167 23.9949C67.3921 24.0524 67.3797 24.1143 67.3804 24.1768V29.7463H66.3859V22.697H71.9954V22.697ZM77.8952 28.7388H83.5719V29.7463H77.9635C77.7726 29.7452 77.5839 29.7064 77.4082 29.632C77.2325 29.5577 77.0733 29.4492 76.9397 29.3129C76.6685 29.036 76.5168 28.6637 76.5172 28.2762V24.1671C76.5172 23.7771 76.6689 23.4055 76.9397 23.1293C77.2105 22.8541 77.5789 22.6981 77.9635 22.6959H83.5697V23.7034H77.893C77.831 23.7029 77.7695 23.715 77.7123 23.739C77.6552 23.763 77.6035 23.7985 77.5605 23.8432C77.5156 23.886 77.48 23.9377 77.4559 23.9949C77.4319 24.0521 77.4199 24.1137 77.4207 24.1758V28.2675C77.42 28.3297 77.432 28.3914 77.4561 28.4488C77.4801 28.5062 77.5156 28.558 77.5605 28.6012C77.6038 28.6456 77.6557 28.6809 77.7131 28.7047C77.7704 28.7285 77.832 28.7405 77.8941 28.7398L77.8952 28.7388ZM88.2735 22.697H92.4281C92.6197 22.6957 92.8097 22.7329 92.9867 22.8064C93.1636 22.8799 93.324 22.9882 93.4584 23.1249C93.5946 23.262 93.7023 23.4246 93.7754 23.6035C93.8484 23.7823 93.8854 23.9739 93.8841 24.1671V28.2762C93.8848 28.6666 93.7314 29.0415 93.4573 29.3194C93.3221 29.4555 93.1612 29.5633 92.984 29.6366C92.8067 29.7099 92.6167 29.7472 92.4249 29.7463H88.2735C88.0828 29.749 87.8936 29.7121 87.718 29.6379C87.5423 29.5637 87.384 29.4538 87.253 29.3151C87.1157 29.1795 87.0075 29.0173 86.9349 28.8385C86.8622 28.6597 86.8267 28.468 86.8305 28.2751V24.1682C86.8279 23.9755 86.864 23.7844 86.9366 23.6059C87.0091 23.4275 87.1167 23.2654 87.253 23.1293C87.3844 22.9912 87.5429 22.8817 87.7184 22.8075C87.894 22.7333 88.083 22.6961 88.2735 22.6981V22.697ZM92.4249 23.7045H88.2887C88.2275 23.7037 88.1669 23.7155 88.1105 23.7394C88.0542 23.7633 88.0035 23.7986 87.9615 23.8432C87.9173 23.8866 87.8822 23.9386 87.8586 23.9959C87.835 24.0533 87.8232 24.1148 87.824 24.1768V28.2664C87.824 28.3912 87.873 28.511 87.9604 28.6001C88.0472 28.688 88.1652 28.7379 88.2887 28.7388H92.4249C92.486 28.7392 92.5465 28.7271 92.6028 28.7033C92.6591 28.6794 92.7099 28.6443 92.752 28.6001C92.7962 28.5566 92.831 28.5046 92.8545 28.4472C92.8779 28.3899 92.8895 28.3284 92.8885 28.2664V24.1768C92.8892 24.1149 92.8775 24.0535 92.854 23.9962C92.8306 23.9389 92.7959 23.8869 92.752 23.8432C92.7093 23.7987 92.658 23.7635 92.6012 23.7397C92.5443 23.7158 92.4832 23.7039 92.4216 23.7045H92.4249ZM21.1708 33.5C21.8725 33.4894 22.5689 33.6241 23.2161 33.8954C23.864 34.1663 24.4511 34.5703 24.9386 35.0795C25.984 36.1336 26.5073 37.4011 26.5073 38.8831V54.0888C26.5179 54.8 26.3845 55.5061 26.1151 56.1644C25.8472 56.8208 25.4483 57.4157 24.943 57.9129C23.8986 58.9713 22.642 59.5 21.1708 59.5H0.461792V20.5H4.08012V33.5H21.1708ZM22.89 54.105V39.0792C22.8869 38.6205 22.7045 38.1812 22.382 37.855C22.2234 37.6947 22.0348 37.5673 21.827 37.4799C21.6192 37.3925 21.3962 37.347 21.1708 37.3458H5.84163C5.6122 37.3439 5.38473 37.388 5.17262 37.4755C4.96051 37.5629 4.76806 37.692 4.60662 37.855C4.43773 38.0106 4.30347 38.2 4.21258 38.4109C4.12168 38.6219 4.07619 38.8495 4.07904 39.0792V54.105C4.07757 54.3342 4.12381 54.5612 4.21482 54.7716C4.30584 54.982 4.43963 55.1711 4.60771 55.327C4.76918 55.4895 4.96128 55.6184 5.1729 55.7062C5.38452 55.7939 5.61144 55.8389 5.84054 55.8383H21.1708C21.6258 55.8362 22.0602 55.6531 22.382 55.3281C22.7037 55.0031 22.8857 54.5633 22.89 54.1039V54.105ZM52.6026 33.5C54.1009 33.5 55.3716 34.0308 56.4138 35.0914C56.9186 35.5887 57.3173 36.1856 57.586 36.8443C57.8557 37.5029 57.989 38.2114 57.9781 38.9243V59.5H37.2691C35.8001 59.5 34.5445 58.9692 33.5013 57.9086C32.9947 57.4104 32.5948 56.8144 32.3259 56.1568C32.0558 55.4967 31.9221 54.7889 31.9326 54.0758V44.6692H54.3609V38.9156C54.3602 38.4543 54.1795 38.0116 53.8571 37.6817C53.6988 37.5195 53.51 37.3901 53.3016 37.3009C53.0933 37.2116 52.8694 37.1643 52.6427 37.1617H31.9326V33.5H52.6026V33.5ZM54.3609 55.8383V48.3308H35.551V54.0844C35.548 54.314 35.5915 54.5419 35.6789 54.7543C35.7662 54.9667 35.8955 55.1593 36.059 55.3205C36.2143 55.4854 36.4019 55.6165 36.6101 55.7056C36.8183 55.7947 37.0427 55.8399 37.2691 55.8383H54.3609ZM68.74 33.5H83.1201V37.1617H68.74C68.2842 37.1659 67.8487 37.3505 67.5288 37.6752C67.2068 38.0025 67.0249 38.4424 67.0218 38.9015V59.5H63.4035V38.9243C63.3931 38.2115 63.5268 37.504 63.7967 36.8443C64.0652 36.1864 64.4648 35.59 64.971 35.0914C66.0143 34.0298 67.271 33.5 68.741 33.5H68.74ZM92.1627 33.5H88.5444V59.5H92.1627V33.5Z" fill="black"/>
<path id="Vector_2" d="M103.376 52.5419H98.6746C98.0744 52.5419 97.5891 53.0337 97.5891 53.6404V58.4016C97.5891 59.0083 98.0744 59.5001 98.6735 59.5001H103.376C103.975 59.5001 104.462 59.0083 104.462 58.4016V53.6393C104.462 53.0326 103.976 52.5408 103.376 52.5408V52.5419Z" fill="#0090FF"/>
</g>
</g>
</g>
</g>
</g>
</g>
</g>
</g>
</g>
<defs>
<clipPath id="clip0_2_4">
<rect width="104" height="41.1667" fill="white" transform="translate(0.461792 19.4167)"/>
</clipPath>
</defs>
</svg>
