<svg width="128" height="80" viewBox="0 0 128 80" fill="none" xmlns="http://www.w3.org/2000/svg">
<rect width="128" height="80" fill="#F5F5F5"/>
<g id="Home">
<g id="Home_2">
<rect width="1920" height="6054" transform="translate(-352 -3086)" fill="white"/>
<g id="Frame 85">
<rect width="1920" height="432" transform="translate(-352 -272)" fill="#FBFBFB"/>
<g id="container">
<g id="parterns-list">
<g id="partner-list">
<g id="cashme-svg" style="mix-blend-mode:luminosity" opacity="0.5">
<g id="Partner" clip-path="url(#clip0_2_4)">
<g id="Group">
<path id="Vector" d="M127.965 40.9177C127.965 35.7701 124.136 32.2007 118.606 32.2007C112.712 32.2007 108.615 36.266 108.615 42.1018C108.615 47.9376 112.945 51.9995 119.145 51.9995C122.242 51.9995 125.04 50.9807 127.138 49.2123L124.664 44.9173C123.4 45.7697 121.501 46.7535 119.137 46.7535C116.607 46.7535 115.063 45.6542 114.766 44.0649H127.501C127.797 43.0408 127.953 41.9824 127.965 40.9177ZM114.74 40.098C114.977 38.4294 116.594 37.3109 118.439 37.3109C120.304 37.3109 121.537 38.4588 121.537 40.098H114.74Z" fill="#00BFFF"/>
<path id="Vector_2" d="M94.7925 39.7702L88.4637 28.5242H82.2018V51.4758H88.6639V39.3411L93.7931 48.0977H95.7907L100.921 39.2619V51.4758H107.382V28.5242H101.12L94.7925 39.7702Z" fill="#00BFFF"/>
<path id="Vector_3" d="M34.0417 32.1963C30.8768 32.1963 27.6797 33.4755 25.115 35.6718L28.1131 39.8027C29.744 38.528 31.5115 37.6393 33.1412 37.6393C34.8065 37.6393 35.9393 38.5574 35.9393 40.0325V40.3608H31.9416C27.1794 40.3608 24.2813 42.3601 24.2813 46.0654C24.2813 49.5091 26.7791 51.9997 30.7066 51.9997C33.0711 51.9997 35.0698 51.0816 36.4016 49.6065V51.4755H42.3968V40.4582C42.4002 35.3106 39.0029 32.1963 34.0417 32.1963ZM35.9393 44.5902C35.9393 46.3925 34.7064 47.5077 32.9077 47.5077C31.576 47.5077 30.8756 46.885 30.8756 45.8683C30.8756 44.8517 31.5093 44.2291 32.5742 44.2291H35.9393V44.5902Z" fill="#00224B"/>
<path id="Vector_4" d="M12.3907 28C8.49319 28 5.16266 29.7377 2.86488 32.2623C2.16565 33.0162 1.93219 33.4759 1.93219 34.0657C1.93219 34.5898 2.1622 35.0166 2.53136 35.2464L6.72787 37.8038C6.98459 37.9449 7.21079 38.1341 7.39374 38.3608C8.06077 36.1962 10.1205 34.6883 12.5897 34.6883C14.5884 34.6883 16.4204 35.6392 17.6199 37.5411L23.0481 34.1641C20.9504 30.4906 17.0529 28 12.3907 28Z" fill="#00224B"/>
<path id="Vector_5" d="M12.5898 45.3122C10.1252 45.3122 8.09423 43.8406 7.42721 41.6726C7.29496 41.8368 6.96719 42.0337 6.72798 42.164L2.53033 44.7213C2.09791 44.984 1.93115 45.3779 1.93115 45.8364C1.93115 46.3934 2.19682 46.9187 2.86384 47.7054C5.16392 50.4225 8.59221 52.0006 12.3229 52.0006C17.0519 52.0006 20.9483 49.5099 23.0471 45.8364L17.6189 42.4594C16.4206 44.3613 14.5885 45.3122 12.5898 45.3122Z" fill="#00224B"/>
<path id="Vector_6" d="M6.26224 41.4094C6.82806 41.0822 7.16158 40.6883 7.16158 39.9999C7.16158 39.3117 6.86142 38.9177 6.26224 38.5577L2.03239 36.0377C1.62326 35.7659 1.30921 35.3765 1.13305 34.9226C0.376238 36.511 -0.0107741 38.2456 0.000260491 39.9999C-0.0115083 41.7453 0.375642 43.4709 1.13305 45.0491C1.19958 44.8134 1.31344 44.5933 1.46792 44.4017C1.6224 44.2103 1.81433 44.0511 2.03239 43.934L6.26224 41.4094Z" fill="#00BFFF"/>
<path id="Vector_7" d="M73.6753 32.1966C71.3752 32.1966 69.6121 33.1804 68.2792 35.311V28.5242H61.8184V51.4758H68.2792V40.7211C68.2792 39.1148 69.8123 37.6396 71.5442 37.6396C72.8759 37.6396 73.8754 38.5578 73.8754 39.803V51.4758H80.3363V39.803C80.3363 35.0823 77.5728 32.1966 73.6753 32.1966Z" fill="#00224B"/>
<path id="Vector_8" d="M54.4571 39.803L52.4595 39.049C51.5934 38.7207 51.1266 38.4921 51.1266 38.0302C51.1266 37.5389 51.5934 37.2762 52.525 37.2762C53.8913 37.2762 55.3564 37.8332 56.6894 38.9483L59.8864 34.9487C58.1545 33.2109 55.4564 32.1943 52.3594 32.1943C47.8294 32.1943 44.5322 34.3917 44.5322 38.1287C44.5322 41.1128 46.6299 42.752 50.5274 44.2271L52.7585 45.0796C53.5244 45.3751 53.8913 45.6038 53.8913 46.0305C53.8913 46.5875 53.2922 46.9486 52.1259 46.9486C50.2939 46.9486 48.3952 46.0634 46.6966 44.5227L43.5328 48.3909C45.5638 50.6856 48.662 51.9977 52.1582 51.9977C57.0539 51.9977 60.4845 49.4404 60.4845 45.7713C60.4856 42.8856 58.388 41.2781 54.4571 39.803Z" fill="#00224B"/>
</g>
</g>
</g>
</g>
</g>
</g>
</g>
</g>
</g>
<defs>
<clipPath id="clip0_2_4">
<rect width="128" height="24" fill="white" transform="translate(0 28)"/>
</clipPath>
</defs>
</svg>
