<svg width="145" height="80" viewBox="0 0 145 80" fill="none" xmlns="http://www.w3.org/2000/svg">
<rect width="145" height="80" fill="#F5F5F5"/>
<rect width="1920" height="6054" transform="translate(-829 -2974)" fill="white"/>
<rect width="1920" height="432" transform="translate(-829 -160)" fill="#FBFBFB"/>
<g style="mix-blend-mode:luminosity" opacity="0.5">
<g clip-path="url(#clip0_2_4)">
<path fill-rule="evenodd" clip-rule="evenodd" d="M134.483 35.6701H131.008L130.721 36.9464H134.483C137.925 36.9464 139.086 37.8834 139.086 40.6588V42.0031C138.233 41.1293 136.724 40.6854 134.591 40.6854C131.188 40.6854 129.534 42.1609 129.534 45.1948V45.4157C129.534 48.2612 131.164 49.7032 134.375 49.7032H135.239C138.642 49.7032 140.368 48.2612 140.368 45.4157V40.6588C140.368 37.116 138.662 35.6711 134.483 35.6711V35.6701ZM139.086 45.6002C139.086 47.6359 137.998 48.4289 135.204 48.4289H134.663C131.968 48.4289 130.817 47.5274 130.817 45.4157V45.1948C130.817 42.9017 131.913 41.9232 134.483 41.9232H134.7C137.774 41.9232 139.086 42.8691 139.086 45.0843V45.6002V45.6002ZM45.2668 38.1714L45.9503 34.7666H40.067V30.1172L35.9384 30.7554V44.6454C35.9384 49.4487 37.7798 50.8769 42.8011 50.8769H44.9995L45.683 47.5027H43.0979C40.8097 47.5027 40.067 46.9258 40.067 44.3722V38.1714H45.2668V38.1714ZM16.8929 28.5056V43.4303C16.8929 48.9625 19.3882 51.2714 24.8257 51.2714C30.4713 51.2714 32.9666 49.0226 32.9666 43.4599V42.0317C32.9666 36.8043 30.6488 34.2498 25.599 34.2498C23.9943 34.2498 22.2416 34.5842 21.0521 35.5261V27.8359L16.8929 28.5046V28.5056ZM24.9746 37.5934C27.827 37.5934 28.837 38.7483 28.837 42.1836V43.4599C28.837 46.8035 27.827 47.9594 24.9155 47.9594C22.0039 47.9594 20.9929 46.8035 20.9929 43.4303V41.6964C20.9929 38.626 22.0039 37.5934 24.9746 37.5934V37.5934ZM55.2502 34.2498C49.8127 34.2498 47.3173 36.5903 47.3173 41.94V42.7606C47.3173 47.8371 49.4862 50.2989 54.5962 50.2989C56.2305 50.2989 57.8648 49.9961 59.0228 49.0532V49.6618C59.0228 52.5191 57.8047 53.46 54.9523 53.46H53.245C52.2686 53.4778 51.8247 53.6553 51.2369 54.6416H51.2339C46.335 62.5725 37.8301 67.4181 28.5608 67.4181C13.7722 67.4181 1.74034 55.1091 1.74034 39.9792C1.74034 24.8494 13.7722 12.5413 28.5608 12.5413C38.9486 12.5413 48.3983 18.6958 52.8199 28.2738H54.0528C49.5444 18.0173 39.5561 11.3972 28.5599 11.3972C13.1558 11.3972 0.622864 24.2191 0.622864 39.9802C0.622864 55.7403 13.1558 68.5623 28.5608 68.5623C37.62 68.5623 45.9809 64.118 51.1935 56.7434H55.19C60.4489 56.7434 63.1524 54.7067 63.1524 49.5089V41.6678C63.1524 36.4996 60.5683 34.2508 55.2502 34.2508V34.2498ZM59.0533 43.2774C59.0533 46.1348 58.072 47.0155 55.2502 47.0155C52.0703 47.0155 51.447 45.8911 51.447 42.5791V42.0623C51.447 38.7779 52.0111 37.5944 55.2502 37.5944C58.429 37.5944 59.0533 38.7483 59.0533 42.0919V43.2774V43.2774ZM143.014 49.7032H144.296V30.3983H143.014V49.7032V49.7032ZM114.134 36.9464L114.421 35.6711H108.688V32.0267L107.37 32.2674V44.752C107.37 48.3086 108.672 49.6302 112.174 49.6302H114.067L114.307 48.3559H112.174C109.534 48.3559 108.688 47.4978 108.688 44.8249V36.9464H114.134ZM126.003 44.1621C126.003 47.4485 124.998 48.5019 121.869 48.5019C118.831 48.5019 117.805 47.4071 117.805 44.1621V35.6701H116.489V44.1621C116.489 48.203 117.998 49.7772 121.869 49.7772C125.715 49.7772 127.285 48.1508 127.285 44.1621V35.6701H126.002V44.1621H126.003ZM97.0111 43.2409V42.0603C97.0111 38.2838 98.2716 36.9464 101.83 36.9464H104.836L105.122 35.6711H101.83C97.5861 35.6711 95.6925 37.6417 95.6925 42.0603V43.2409C95.6925 47.6596 97.5861 49.6302 101.83 49.6302H104.872L105.159 48.3559H101.83C98.3614 48.3559 97.0111 46.9218 97.0111 43.2409V43.2409ZM87.5219 35.6711H84.0472L83.7602 36.9464H87.5219C90.9365 36.9464 92.0885 37.8834 92.0885 40.6588V42.0031C91.2354 41.1293 89.7263 40.6854 87.5939 40.6854C84.1912 40.6854 82.5382 42.1609 82.5382 45.1948V45.4157C82.5382 48.2612 84.1784 49.7032 87.4134 49.7032H88.2784C91.6575 49.7032 93.3707 48.2612 93.3707 45.4157V40.6588C93.3707 37.116 91.6762 35.6711 87.5219 35.6711V35.6711ZM92.0885 45.6002C92.0885 47.6615 91.046 48.4289 88.2419 48.4289H87.7024C84.9802 48.4289 83.8194 47.5274 83.8194 45.4157V45.1948C83.8194 42.9017 84.9161 41.9232 87.4854 41.9232H87.7024C90.7767 41.9232 92.0885 42.8691 92.0885 45.0843V45.6002V45.6002ZM74.6191 35.4501C70.5556 35.4501 68.6619 37.5036 68.6619 41.9134V53.9068H69.9441V47.7483C70.8712 48.9812 72.6012 49.7032 74.6911 49.7032C78.736 49.7032 80.5399 47.7109 80.5399 43.2409V41.8759C80.5399 37.4316 78.7143 35.4501 74.6191 35.4501V35.4501ZM79.2222 43.2409C79.2222 47.0234 77.9943 48.4289 74.6911 48.4289C71.5646 48.4289 69.9796 46.8695 69.9796 43.7933V41.9134C69.9796 38.2276 71.3239 36.7245 74.6191 36.7245C77.9311 36.7245 79.2222 38.1684 79.2222 41.8759V43.2409Z" fill="#001E62"/>
</g>
</g>
<defs>
<clipPath id="clip0_2_4">
<rect width="144" height="57.2055" fill="white" transform="translate(0.622864 11.3972)"/>
</clipPath>
</defs>
</svg>
