<svg width="145" height="80" viewBox="0 0 145 80" fill="none" xmlns="http://www.w3.org/2000/svg">
<rect width="145" height="80" fill="#F5F5F5"/>
<g id="Home">
<g id="Home_2">
<rect width="1920" height="6054" transform="translate(-571 -3086)" fill="white"/>
<g id="Frame 85">
<rect width="1920" height="432" transform="translate(-571 -272)" fill="#FBFBFB"/>
<g id="container">
<g id="parterns-list">
<g id="partner-list">
<g id="creditas-svg" style="mix-blend-mode:luminosity" opacity="0.5">
<g id="Partner" clip-path="url(#clip0_2_4)">
<path id="Vector" fill-rule="evenodd" clip-rule="evenodd" d="M66.2025 33.4939C66.2012 33.1084 65.8914 32.7793 65.496 32.7976C63.617 32.9339 62.1236 33.5945 61.0185 34.781C59.7697 36.1216 59.1453 37.9843 59.1453 40.3698V47.12C59.1453 47.5057 59.4604 47.8185 59.849 47.8185H60.4001C60.789 47.8185 61.1043 47.5057 61.1043 47.12L61.1023 40.3698C61.1023 38.5394 61.5401 37.1388 62.4166 36.1679C63.1561 35.3481 64.1852 34.8788 65.496 34.7513C65.8914 34.7171 66.2025 34.4649 66.2025 34.0404V33.4939Z" fill="#666666"/>
<path id="Vector_2" fill-rule="evenodd" clip-rule="evenodd" d="M68.5541 39.369C68.7028 37.8601 69.2563 36.6518 70.2155 35.8609C71.1739 35.07 72.5002 34.6746 74.194 34.6746C75.8879 34.6746 77.2145 35.07 78.1731 35.8609C79.1318 36.6518 79.6783 37.8601 79.8455 39.369H68.5541ZM74.0838 46.0997C72.2239 46.0997 70.8107 45.6174 69.844 44.6525C69.0602 43.8707 68.5997 42.791 68.4511 41.4243H80.6552C81.0341 41.4243 81.2409 41.3465 81.4409 41.1661C81.7436 40.8929 81.7272 40.3787 81.7272 40.3787C81.7272 37.9856 81.057 36.1599 79.7183 34.815C78.3793 33.4698 76.5012 32.7969 74.0838 32.7969C71.6348 32.7969 69.8243 33.4661 68.4493 34.815C66.2543 36.9681 66.4409 40.4563 66.4409 40.4594C66.4371 42.8766 67.1104 44.6982 68.4458 46.0484C70.619 48.2458 74.0671 48.0487 74.0711 48.0487C76.4881 48.0487 78.3857 47.3798 79.7247 46.0439C80.451 45.3189 80.83 44.8316 81.1623 43.7897C81.3968 43.0516 80.6745 43.1016 80.6745 43.1016L79.7674 43.1019C79.3573 43.0984 79.2083 43.3758 78.9979 43.7821C77.9537 45.6056 75.9435 46.0997 74.0838 46.0997Z" fill="#666666"/>
<path id="Vector_3" fill-rule="evenodd" clip-rule="evenodd" d="M95.1083 44.4872C94.1494 45.4565 92.7469 45.9408 90.9019 45.9408C89.0751 45.9408 87.6777 45.4565 86.709 44.4872C85.7403 43.5178 85.2561 42.0905 85.2561 40.2627C85.2561 38.4163 85.7403 37.0743 86.709 36.1144C87.6777 35.1545 89.0751 34.6747 90.9019 34.6747C92.7469 34.6747 94.1494 35.1545 95.1083 36.1144C96.0681 37.0743 96.5477 38.4163 96.5477 40.2627C96.5477 42.0905 96.0681 43.5178 95.1083 44.4872ZM97.9609 26.9292H97.41C97.0214 26.9292 96.7061 27.241 96.7061 27.6255C96.7061 27.6308 96.7081 35.1452 96.7081 35.1452C96.0824 34.3294 95.1736 33.6243 94.2138 33.2646C93.2542 32.905 92.2353 32.7255 91.0054 32.7255C88.6016 32.7255 86.7288 33.3891 85.387 34.7164C84.045 36.0432 83.3743 37.8445 83.3743 40.2411C83.3743 42.6188 84.045 44.5006 85.387 45.8278C86.7288 47.1549 88.6016 47.8186 91.0054 47.8186C93.4282 47.8186 95.3102 47.1549 96.6519 45.8278C97.9939 44.5006 98.6646 42.6188 98.6646 40.3014V27.6859C98.6646 27.241 98.3496 26.9292 97.9609 26.9292Z" fill="#666666"/>
<path id="Vector_4" fill-rule="evenodd" clip-rule="evenodd" d="M44.7952 40.4252C44.7952 42.8175 45.4599 44.6854 46.7897 46.0303C48.1196 47.3747 49.985 48.0532 52.3858 48.0532C54.5924 48.0532 56.0349 47.4336 56.7606 46.9483C57.3219 46.606 57.2608 46.2078 57.2608 45.7627V45.4084C57.2608 44.4984 56.5185 44.8735 56.1104 45.0981C55.2166 45.5743 54.3192 46.0999 52.3858 46.0999C50.5388 46.0999 49.1349 45.6128 48.175 44.6396C47.2144 43.6659 46.7344 42.2612 46.7344 40.4252C46.7344 38.5889 47.2144 37.1841 48.175 36.2107C49.1349 35.2372 50.5388 34.7503 52.3858 34.7503C53.6676 34.7503 54.691 34.985 55.5846 35.4615C55.9838 35.6546 56.7351 36.0329 56.7351 35.1829V34.7715C56.7351 34.3264 56.7983 33.9763 56.2317 33.6524C55.0466 33.0571 54.0416 32.7969 52.3858 32.7969C49.985 32.7969 48.1196 33.4754 46.7897 34.8197C45.4599 36.1646 44.7952 38.0329 44.7952 40.4252Z" fill="#666666"/>
<path id="Vector_5" fill-rule="evenodd" clip-rule="evenodd" d="M114.897 46.8049C114.897 46.3789 114.583 46.1256 114.187 46.0914C112.873 45.9634 111.842 45.4924 111.101 44.6693C110.222 43.6951 109.784 42.2888 109.784 40.4513L109.785 34.9248H113.018C113.407 34.9248 113.723 34.611 113.723 34.224V33.675C113.723 33.288 113.407 32.9742 113.018 32.9742H109.786V28.3342C109.786 27.9471 109.47 27.6333 109.08 27.6333H108.529V27.6335L108.528 27.6333C108.139 27.6333 107.823 27.9471 107.823 28.3342V32.9742H106.428C106.038 32.9742 105.722 33.288 105.722 33.675V34.224C105.722 34.611 106.038 34.9248 106.428 34.9248H107.823V40.4513C107.823 42.8458 108.448 44.7156 109.7 46.0615C110.807 47.2527 112.304 47.9156 114.187 48.0524C114.583 48.071 114.895 47.7406 114.897 47.3536V46.8049Z" fill="#666666"/>
<path id="Vector_6" fill-rule="evenodd" clip-rule="evenodd" d="M102.693 26.9292H102.164C101.791 26.9292 101.488 27.2523 101.488 27.6509V29.4933C101.488 29.8921 101.791 30.2152 102.164 30.2152H102.693C103.067 30.2152 103.37 29.8921 103.37 29.4933V27.6509C103.37 27.2523 103.067 26.9292 102.693 26.9292Z" fill="#666666"/>
<path id="Vector_7" fill-rule="evenodd" clip-rule="evenodd" d="M102.693 32.7969H102.164C101.791 32.7969 101.488 33.1085 101.488 33.4925V46.8883C101.488 47.2724 101.791 47.5837 102.164 47.5837H102.693C103.067 47.5837 103.37 47.2724 103.37 46.8883V33.4925C103.37 33.1085 103.067 32.7969 102.693 32.7969Z" fill="#666666"/>
<path id="Vector_8" fill-rule="evenodd" clip-rule="evenodd" d="M126.893 42.742C126.893 45.1339 125.396 45.9408 121.696 45.9408C119.046 45.9408 117.484 45.0623 117.484 43.1773C117.484 41.1129 119.101 40.3077 122.709 40.3077H126.893V42.742ZM126.842 37.084V38.6522H122.631C117.77 38.6522 115.602 40.0515 115.602 43.1896C115.602 46.0881 117.88 47.8185 121.696 47.8185C126.67 47.8185 128.776 46.3341 128.776 42.8557V37.084C128.776 34.9385 127.312 33.9786 127.312 33.9786C126.581 33.4142 125.649 33.0617 124.515 32.9203C123.816 32.8301 123.233 32.7969 122.514 32.7969C121.832 32.7969 121.249 32.8243 120.59 32.9032C119.386 33.0287 118.396 33.3851 117.626 33.9786C116.658 34.727 116.172 35.7746 116.165 37.084C116.165 37.084 116.188 37.6878 116.849 37.6878L116.85 37.6876V37.6878H117.385C117.764 37.6878 118.071 37.4432 118.071 37.0652C118.071 35.6707 119.242 35.2188 119.242 35.2188C119.583 35.0536 120.858 34.6679 122.505 34.6679C124.218 34.6679 125.356 35.0534 125.697 35.2186C125.697 35.2186 126.842 35.6526 126.842 37.084Z" fill="#666666"/>
<path id="Vector_9" fill-rule="evenodd" clip-rule="evenodd" d="M137.041 41.0373C140.614 41.0373 141.901 41.2542 141.901 43.3063C141.901 45.1795 140.078 45.968 137.455 45.968C135.351 45.968 133.967 45.7034 133.169 45.028C132.52 44.441 132.565 43.5635 132.565 43.5635C132.565 43.1854 132.258 42.9404 131.879 42.9404H131.342C130.68 42.9404 130.657 43.5444 130.657 43.5444C130.657 45.724 132.109 46.6844 132.109 46.6844C133.26 47.4608 135.011 47.8185 137.455 47.8185C141.274 47.8185 143.831 46.1709 143.831 43.2688C143.831 40.1269 141.917 39.1638 137.051 39.1638C134.971 39.1638 133.971 38.6337 133.971 38.6337C132.757 38.0992 132.825 36.9701 132.825 36.9701C132.825 35.6504 133.971 35.1648 133.971 35.1648C134.313 34.999 135.335 34.6706 137.051 34.6706C138.699 34.6706 139.859 35.0222 140.2 35.1877C140.2 35.1877 141.273 35.6544 141.352 36.6988C141.379 37.0574 141.659 37.2799 142.038 37.2799H142.575C143.251 37.2799 143.238 36.6754 143.238 36.6754C143.238 35.8108 142.787 34.7292 141.818 33.9801C141.048 33.3858 140.076 33.0476 138.968 32.9035C138.309 32.8177 137.724 32.7969 137.041 32.7969C136.321 32.7969 135.854 32.8301 135.155 32.9203C134.02 33.0619 133.035 33.4658 132.354 33.9801C132.354 33.9801 130.89 34.9362 130.89 36.9701C130.89 36.9701 130.789 38.739 132.354 39.8965C132.354 39.8965 133.606 41.0373 137.041 41.0373Z" fill="#666666"/>
<path id="Vector_10" fill-rule="evenodd" clip-rule="evenodd" d="M38.0287 44.5291C38.0287 44.9088 37.9076 45.1975 37.9076 45.1975C35.9222 50.6671 30.7264 54.3402 24.9696 54.3402C23.0207 54.3402 21.1657 53.9257 19.4833 53.1831C19.4833 53.1831 17.106 54.3396 14.009 54.3396C6.39949 54.3396 0.230896 48.0912 0.230896 40.3832C0.230896 32.6752 6.39949 26.4268 14.009 26.4268C17.1745 26.4268 19.4833 27.5833 19.4833 27.5833C21.1657 26.8407 23.0207 26.4263 24.9696 26.4263C30.7264 26.4263 35.9222 30.0993 37.9076 35.5689C37.9076 35.5689 38.0287 35.8574 38.0287 36.2374C38.0287 36.5017 37.97 36.8102 37.771 37.0967C37.4362 37.578 36.8521 37.8747 36.1872 37.8788H27.1957C25.7004 37.8788 25.0833 36.1282 25.0833 36.1282C24.0352 33.3331 22.0076 31.0957 19.4864 29.7601C15.7118 31.7669 13.1294 35.7741 13.1287 40.3832C13.1294 44.9922 15.7118 48.9996 19.4864 51.0064C22.0076 49.6707 24.0352 47.4334 25.0833 44.6381C25.0833 44.6381 25.7004 42.8877 27.1957 42.8877H36.1872C36.8521 42.8917 37.4362 43.1885 37.771 43.6698C37.97 43.9561 38.0287 44.2648 38.0287 44.5291ZM26.8508 34.9757C25.7933 32.4169 24.0236 30.2832 21.8296 28.7768C22.8625 28.4806 23.9511 28.3186 25.0764 28.3186C29.9423 28.3186 34.3445 31.3457 36.1504 35.8886H27.851C27.2002 35.8886 26.8508 34.9757 26.8508 34.9757ZM2.10905 40.2648C2.11043 33.6776 7.41121 28.3186 13.9266 28.3186C15.0283 28.3186 16.1058 28.4763 17.1343 28.7715C13.5017 31.276 11.1112 35.4943 11.1094 40.2648C11.1112 45.0353 13.5017 49.2538 17.1343 51.7582C16.1058 52.0534 15.0283 52.2111 13.9266 52.2111C7.41121 52.2111 2.11043 46.8522 2.10905 40.2648ZM21.8296 51.9896C24.0236 50.483 25.7933 48.3494 26.8508 45.7905C26.8508 45.7905 27.2002 44.8779 27.851 44.8779H36.1504C34.3445 49.4207 29.9423 52.4478 25.0764 52.4478C23.9511 52.4478 22.8625 52.2856 21.8296 51.9896Z" fill="url(#paint0_linear_2_4)"/>
<path id="Vector_11" fill-rule="evenodd" clip-rule="evenodd" d="M38.0287 44.5291C38.0287 44.9088 37.9076 45.1975 37.9076 45.1975C35.9222 50.6671 30.7264 54.3402 24.9696 54.3402C23.0207 54.3402 21.1657 53.9257 19.4833 53.1831C19.4833 53.1831 17.106 54.3396 14.009 54.3396C6.39949 54.3396 0.230896 48.0912 0.230896 40.3832C0.230896 32.6752 6.39949 26.4268 14.009 26.4268C17.1745 26.4268 19.4833 27.5833 19.4833 27.5833C21.1657 26.8407 23.0207 26.4263 24.9696 26.4263C30.7264 26.4263 35.9222 30.0993 37.9076 35.5689C37.9076 35.5689 38.0287 35.8574 38.0287 36.2374C38.0287 36.5017 37.97 36.8102 37.771 37.0967C37.4362 37.578 36.8521 37.8747 36.1872 37.8788H27.1957C25.7004 37.8788 25.0833 36.1282 25.0833 36.1282C24.0352 33.3331 22.0076 31.0957 19.4864 29.7601C15.7118 31.7669 13.1294 35.7741 13.1287 40.3832C13.1294 44.9922 15.7118 48.9996 19.4864 51.0064C22.0076 49.6707 24.0352 47.4334 25.0833 44.6381C25.0833 44.6381 25.7004 42.8877 27.1957 42.8877H36.1872C36.8521 42.8917 37.4362 43.1885 37.771 43.6698C37.97 43.9561 38.0287 44.2648 38.0287 44.5291ZM26.8508 34.9757C25.7933 32.4169 24.0236 30.2832 21.8296 28.7768C22.8625 28.4806 23.9511 28.3186 25.0764 28.3186C29.9423 28.3186 34.3445 31.3457 36.1504 35.8886H27.851C27.2002 35.8886 26.8508 34.9757 26.8508 34.9757ZM2.10905 40.2648C2.11043 33.6776 7.41121 28.3186 13.9266 28.3186C15.0283 28.3186 16.1058 28.4763 17.1343 28.7715C13.5017 31.276 11.1112 35.4943 11.1094 40.2648C11.1112 45.0353 13.5017 49.2538 17.1343 51.7582C16.1058 52.0534 15.0283 52.2111 13.9266 52.2111C7.41121 52.2111 2.11043 46.8522 2.10905 40.2648ZM21.8296 51.9896C24.0236 50.483 25.7933 48.3494 26.8508 45.7905C26.8508 45.7905 27.2002 44.8779 27.851 44.8779H36.1504C34.3445 49.4207 29.9423 52.4478 25.0764 52.4478C23.9511 52.4478 22.8625 52.2856 21.8296 51.9896Z" fill="#11BB77"/>
<mask id="mask0_2_4" style="mask-type:alpha" maskUnits="userSpaceOnUse" x="0" y="26" width="39" height="29">
<g id="mask0">
<path id="Vector_12" fill-rule="evenodd" clip-rule="evenodd" d="M38.0287 44.5291C38.0287 44.9088 37.9076 45.1975 37.9076 45.1975C35.9222 50.6671 30.7264 54.3402 24.9696 54.3402C23.0207 54.3402 21.1657 53.9257 19.4833 53.1831C19.4833 53.1831 17.106 54.3396 14.009 54.3396C6.39949 54.3396 0.230896 48.0912 0.230896 40.3832C0.230896 32.6752 6.39949 26.4268 14.009 26.4268C17.1745 26.4268 19.4833 27.5833 19.4833 27.5833C21.1657 26.8407 23.0207 26.4263 24.9696 26.4263C30.7264 26.4263 35.9222 30.0993 37.9076 35.5689C37.9076 35.5689 38.0287 35.8574 38.0287 36.2374C38.0287 36.5017 37.97 36.8102 37.771 37.0967C37.4362 37.578 36.8521 37.8747 36.1872 37.8788H27.1957C25.7004 37.8788 25.0833 36.1282 25.0833 36.1282C24.0352 33.3331 22.0076 31.0957 19.4864 29.7601C15.7118 31.7669 13.1294 35.7741 13.1287 40.3832C13.1294 44.9922 15.7118 48.9996 19.4864 51.0064C22.0076 49.6707 24.0352 47.4334 25.0833 44.6381C25.0833 44.6381 25.7004 42.8877 27.1957 42.8877H36.1872C36.8521 42.8917 37.4362 43.1885 37.771 43.6698C37.97 43.9561 38.0287 44.2648 38.0287 44.5291ZM26.8508 34.9757C25.7933 32.4169 24.0236 30.2832 21.8296 28.7768C22.8625 28.4806 23.9511 28.3186 25.0764 28.3186C29.9423 28.3186 34.3445 31.3457 36.1504 35.8886H27.851C27.2002 35.8886 26.8508 34.9757 26.8508 34.9757ZM2.10905 40.2648C2.11043 33.6776 7.41121 28.3186 13.9266 28.3186C15.0283 28.3186 16.1058 28.4763 17.1343 28.7715C13.5017 31.276 11.1112 35.4943 11.1094 40.2648C11.1112 45.0353 13.5017 49.2538 17.1343 51.7582C16.1058 52.0534 15.0283 52.2111 13.9266 52.2111C7.41121 52.2111 2.11043 46.8522 2.10905 40.2648ZM21.8296 51.9896C24.0236 50.483 25.7933 48.3494 26.8508 45.7905C26.8508 45.7905 27.2002 44.8779 27.851 44.8779H36.1504C34.3445 49.4207 29.9423 52.4478 25.0764 52.4478C23.9511 52.4478 22.8625 52.2856 21.8296 51.9896Z" fill="white"/>
</g>
</mask>
<g mask="url(#mask0_2_4)">
</g>
</g>
</g>
</g>
</g>
</g>
</g>
</g>
</g>
<defs>
<linearGradient id="paint0_linear_2_4" x1="-4.22232" y1="4.31448" x2="-19.7746" y2="42.8065" gradientUnits="userSpaceOnUse">
<stop stop-color="#24E28B"/>
<stop offset="1" stop-color="#1FC6C1"/>
</linearGradient>
<clipPath id="clip0_2_4">
<rect width="144" height="27.1475" fill="white" transform="translate(0.230896 26.4263)"/>
</clipPath>
</defs>
</svg>
